<svg xmlns="http://www.w3.org/2000/svg" height="341" width="463" stroke-miterlimit="10" viewBox="0 0 463 341" fill="none" stroke-linecap="square"><path d="M5 43.795C5 22.165 22.535 4.63 44.166 4.63h374.676c10.387 0 20.35 4.125 27.694 11.47 7.345 7.345 11.472 17.307 11.472 27.695v156.66c0 21.63-17.535 39.166-39.166 39.166H44.166C22.536 239.62 5 222.09 5 200.46z" fill="#000"/><path d="M187.504 135.627c0-7.457 6.045-13.502 13.502-13.502h60.996c3.58 0 7.015 1.422 9.547 3.955 2.53 2.532 3.95 5.966 3.95 9.547v18.003c0 7.458-6.05 13.503-13.5 13.503h-61c-7.46 0-13.51-6.045-13.51-13.503z"/><path d="M187.504 135.627c0-7.457 6.045-13.502 13.502-13.502h60.996c3.58 0 7.015 1.422 9.547 3.955 2.53 2.532 3.95 5.966 3.95 9.547v18.003c0 7.458-6.05 13.503-13.5 13.503h-61c-7.46 0-13.51-6.045-13.51-13.503z" stroke="#fff" stroke-width="24" stroke-linecap="butt" stroke-linejoin="round"/><path d="M5 122.125h453.008"/><path d="M5 122.125h453.008" stroke="#fff" stroke-width="24" stroke-linecap="butt" stroke-linejoin="round"/><path d="M45.24 271.734v62.953H30.847v-62.953H10.395v-11.718h55.297v11.718zm85.366 33.47q0 6.858-1.953 12.546-1.938 5.687-5.594 9.75-3.66 4.047-8.97 6.28-5.32 2.22-12.11 2.22-6.46 0-11.55-1.875-5.08-1.89-8.63-5.625-3.53-3.75-5.43-9.375-1.89-5.625-1.89-13.11 0-6.92 1.97-12.578 1.98-5.656 5.65-9.656 3.68-4 9-6.18 5.31-2.2 12-2.2 6.51 0 11.59 1.92 5.09 1.91 8.62 5.67 3.54 3.77 5.4 9.35 1.86 5.57 1.86 12.88zm-14.516.343q0-9.016-3.406-13.563-3.39-4.547-10.016-4.547-3.656 0-6.234 1.438-2.562 1.422-4.22 3.906-1.655 2.49-2.436 5.8-.766 3.32-.766 7.1 0 9.08 3.656 13.69 3.657 4.6 10 4.6 3.485 0 6.047-1.4 2.578-1.4 4.172-3.89 1.61-2.48 2.406-5.84.797-3.37.797-7.26zm79.024-.344q0 6.86-1.954 12.547-1.937 5.687-5.593 9.75-3.657 4.047-8.97 6.28-5.312 2.22-12.108 2.22-6.46 0-11.55-1.875-5.08-1.89-8.63-5.625-3.53-3.75-5.42-9.375-1.89-5.625-1.89-13.11 0-6.92 1.97-12.578 1.98-5.656 5.65-9.656 3.68-4 9-6.18 5.31-2.2 12-2.2 6.51 0 11.59 1.92 5.09 1.91 8.62 5.67 3.54 3.77 5.4 9.35 1.86 5.57 1.86 12.88zm-14.516.344q0-9.016-3.406-13.563-3.39-4.547-10.016-4.547-3.656 0-6.234 1.438-2.563 1.422-4.22 3.906-1.655 2.49-2.437 5.8-.765 3.32-.765 7.1 0 9.08 3.656 13.69 3.656 4.6 10 4.6 3.484 0 6.047-1.4 2.578-1.4 4.172-3.89 1.61-2.48 2.406-5.84.8-3.37.8-7.26zm45.476-40.735h-16.39V253.97h30.687v69.858h16.74v10.86h-49.42v-10.86h18.39zm97.992 39.83q0 8-2.265 13.827-2.25 5.82-6.28 9.68-4.01 3.84-9.5 5.7-5.48 1.86-11.93 1.86-6.34 0-11.81-.96-5.45-.94-10.42-2.53v-78.26h13.94v18.96l-.56 11.42q3.14-4.07 7.33-6.52 4.2-2.46 10.09-2.46 5.14 0 9.14 2.06 4 2.046 6.71 5.843 2.72 3.796 4.14 9.202 1.44 5.39 1.44 12.14zm-14.625.56q0-4.796-.68-8.155-.69-3.375-1.97-5.547-1.28-2.172-3.14-3.172t-4.25-1q-3.54 0-6.78 2.86-3.22 2.86-6.83 7.765v25.36q1.66.64 4.08 1.046 2.44.39 4.95.39 3.32 0 6.02-1.38 2.72-1.38 4.63-3.88 1.92-2.52 2.96-6.14 1.03-3.64 1.03-8.16zm79.2 0q0 6.86-1.95 12.548-1.93 5.687-5.59 9.75-3.65 4.047-8.97 6.28-5.31 2.22-12.11 2.22-6.45 0-11.54-1.875-5.08-1.89-8.62-5.625-3.53-3.75-5.42-9.375-1.89-5.625-1.89-13.11 0-6.92 1.97-12.578 1.99-5.656 5.66-9.656 3.69-4 9-6.18 5.318-2.2 12-2.2 6.52 0 11.6 1.92 5.093 1.91 8.625 5.67 3.548 3.77 5.408 9.35 1.86 5.57 1.86 12.88zm-14.51.345q0-9.016-3.4-13.563-3.39-4.547-10.01-4.547-3.65 0-6.23 1.438-2.56 1.422-4.22 3.906-1.66 2.49-2.44 5.8-.76 3.32-.76 7.1 0 9.08 3.66 13.69 3.66 4.6 10 4.6 3.487 0 6.05-1.4 2.578-1.4 4.17-3.89 1.61-2.48 2.408-5.84.8-3.37.8-7.26zm64.79 29.14l-14.39-27.484-14.17 27.484h-16.97l21.55-38.28-20.11-36.39h16.5l13.55 26 13.08-26h16.52l-20 36.39 22.34 38.28z" fill="#000"/></svg>